<svg xmlns="http://www.w3.org/2000/svg" viewBox="0 0 64 64" id="shopping-bag"><path d="M51 17h-7.07c-.36-2.86-2.3-7-7.93-7a9.79 9.79 0 0 0-1.29.08 1 1 0 1 0 .28 2A7.41 7.41 0 0 1 36 12a5.53 5.53 0 0 1 5.91 5h-6c-.36-2.86-2.3-7-7.93-7s-7.57 4.14-7.93 7H13a1 1 0 0 0-1 1v36a1 1 0 0 0 1 1h30a1 1 0 0 0 .23 0h.09a1.23 1.23 0 0 0 .25-.14.24.24 0 0 0 .08-.06.58.58 0 0 0 .16-.19.34.34 0 0 0 .08-.09A3.38 3.38 0 0 1 47 53a3.41 3.41 0 0 1 3.11 1.45A1 1 0 0 0 51 55a.91.91 0 0 0 .23 0 1 1 0 0 0 .77-1V18a1 1 0 0 0-1-1Zm-16 6a1 1 0 1 1-1 1 1 1 0 0 1 1-1Zm-7-11a5.53 5.53 0 0 1 5.91 5h-3.8a7.34 7.34 0 0 1 .78-2.28 1 1 0 1 0-1.76-1 9.36 9.36 0 0 0-1 3.24h-6A5.53 5.53 0 0 1 28 12Zm-7 11a1 1 0 1 1-1 1 1 1 0 0 1 1-1Zm21 30H14V19h6v2.18a3 3 0 1 0 2 0V19h12v2.18a3 3 0 1 0 2 0V19h6Zm8-1.28a6.08 6.08 0 0 0-3-.72 6.19 6.19 0 0 0-3 .72V19h6Z"></path></svg>